Patient4_TMGait_0pt7_01_left_18_EMG.mot
version=1
nRows=33
nColumns=33
inDegrees=no
endheader
time	1LAddLong	2LGlutMax	3LGlutMed	4LIliopsoas	5LSemiMemb	6LBicFemLong	7LRecFem	8LVastMed	9LVastLat	10LGasMed	11LTibAnt	12lTibPost	13LPeroneusLong	14LSol	15LExtDigLong	16LFlexDigLong	17RAddLong	18RGlutMax	19RGlutMed	20RIliopsoas	21RSemiMemb	22RBicFemLong	23RRecFem	24RVastMed	25RVastLat	26RGasMed	27RTibAnt	28RTibPost	29RPeroneusLong	30RSol	31RExtDigLong	32RFlexDigLong
21.865	0.011902	0.35355	-0.042419	-0.006714	-0.02182	-0.015717	-0.057373	0.003204	0.070648	-0.046539	0.028076	-0.002594	0.099792	-0.1181	0.090179	-0.008087	-0.010529	-0.22781	-0.38345	0.078125	-0.011139	-0.049896	-0.63995	0.02182	0.057373	-0.014954	-0.16174	-0.004272	0.031586	0.39093	-0.000153	-0.005798
21.866	0.011597	0.38696	-0.048981	0.001373	0.040894	-0.001221	-0.062714	0.001221	0.062408	-0.011902	0.008545	0.000305	0.086365	-0.055847	0.067749	-0.005341	0.001221	-0.21698	0.22003	0.01709	-0.014496	-0.063782	-0.42938	0.18738	0.18188	-0.015411	-0.027161	-0.008087	0.025482	0.044098	-0.001068	-0.010529
21.867	0.007629	0.34897	-0.097809	0.002441	0.035095	0.001678	-0.05722	-0.00473	0.051117	0.003357	-0.003357	-0.003204	0.036011	-0.10376	0.037384	-0.00473	0.018158	-0.32181	0.47867	-0.011292	-0.023346	-0.049438	-0.016632	0.24582	0.034027	-0.014954	-0.12756	-0.000458	0.054474	-0.24262	0.001373	-0.011444
21.868	0.003052	0.37933	-0.075684	0.016479	0.006256	0.019836	-0.066986	0.00473	0.055542	0.007324	0.01358	-0.005646	0.025482	-0.233	0.002441	-0.012207	0.015717	-0.29511	0.16876	0.060425	-0.049591	-0.083618	-0.093079	0.22339	-0.05188	-0.019989	0.12756	-0.004425	-0.085449	-0.4483	-0.00061	-0.011292
21.869	0.011749	0.37964	-0.062561	0.010986	0.012817	0.14847	-0.066986	0.002289	0.043488	-0.016479	0.021057	0.000305	0.045013	-0.10666	-0.010681	-0.002136	0.02594	-0.19653	-0.17563	0.10956	-0.016174	-0.066528	-0.029297	0.1831	0.002289	-0.023956	0.14175	-0.001678	-0.1648	-0.59235	0.002136	-0.021362
21.87	0.011292	0.37399	-0.14832	0.017548	-0.012665	0.12421	-0.071716	0.002441	0.045319	-0.019836	0.011444	0	0.019226	0.045013	-0.005493	0.000458	-0.000916	-0.20203	-0.41138	-0.038147	-0.034485	-0.056763	0.043182	0.22003	0.14099	-0.025635	0.23819	-0.007477	-0.14648	-0.66605	-0.005493	-0.018921
21.871	0.005341	0.38681	-0.12314	0.019073	-0.040894	0.07019	-0.072479	0.002594	0.052948	-0.01236	0.013428	-0.006561	0.023193	0.15137	-0.003967	0.001068	-0.009155	-0.15884	0.12817	-0.13901	-0.020905	-0.033264	-0.01297	0.22995	0.19272	-0.013733	0.3125	-0.005188	0.011902	-0.26596	-0.00412	-0.018616
21.872	0.006561	0.38422	0	0.001831	-0.068665	0.065765	-0.09491	-0.001678	0.055237	-0.007782	0.004578	-0.011749	0.066071	0.14282	-0.001678	-0.003052	-0.016937	-0.18051	0.67535	-0.16037	-0.025635	-0.039063	-0.14572	0.17929	0.1062	0.002289	0.31525	0.002747	0.24857	0.15549	-0.001831	-0.016632
21.873	0.009155	0.34561	0.013123	0.016174	-0.039368	0.040741	-0.1152	0.001526	0.051727	-0.014343	0.004883	-0.012817	0.088043	0.076752	-0.006561	-0.004425	0.010223	-0.24948	0.35187	-0.090179	-0.020752	-0.056763	-0.20203	-0.017395	-0.055389	0.005188	0.18814	0.000763	0.16144	0.3096	-0.001678	-0.014954
21.874	0.012207	0.32059	-0.026703	0.008392	0.037079	0.059357	-0.094452	-0.000458	0.040436	-0.019531	0.01236	-0.010834	0.077667	0.009918	-0.004272	0.004578	0.010834	-0.27969	-0.20554	-0.13657	-0.046997	-0.0737	-0.041962	-0.083771	-0.027924	0.005798	0.72891	0.006409	0.014954	0.21606	0.003052	-0.010834
21.875	0.004883	0.39459	-0.026703	-0.004883	0.056152	0.065155	-0.10757	0.006714	0.037231	-0.005951	0.016174	-0.003357	0.071259	-0.13825	0.012512	-0.006866	0.011597	-0.18249	-0.4129	-0.41565	-0.060425	-0.043335	-0.081177	-0.11108	0.076294	0.020905	-0.12482	-0.000153	0.20752	-0.027161	-0.004578	-0.011597
21.876	0.003204	0.39429	-0.038605	0.0177	0.010529	0.050354	-0.11078	0.00412	0.045319	-0.024109	0.003662	-0.005035	0.1178	-0.21866	0.02594	-0.000763	0.010223	-0.16281	-0.26871	-0.41107	-0.01709	-0.015869	-0.2858	-0.052948	0.029602	0.010986	-0.95734	-0.001984	0.018921	-0.13596	0.000763	-0.014038
21.877	0.003662	0.34286	-0.037689	0.001068	0.005188	0.054016	-0.12573	-0.001221	0.053101	-0.033417	-0.04303	-0.010529	0.13473	-0.17487	0.017395	0.001221	0.02182	-0.21744	-0.16678	-0.17593	0.010223	-0.036926	-0.23666	0.11673	-0.014954	0.001526	-0.56076	-0.01236	-0.20432	-0.24429	-0.001221	-0.015869
21.878	0.010071	0.31464	-0.18341	-0.001984	-0.015564	0.027161	-0.11917	0.002136	0.047302	-0.031586	-0.054474	-0.011597	0.046387	-0.12405	-0.000763	-0.002899	0.018921	-0.26642	-0.22568	0.20737	-0.036316	-0.020447	-0.34592	0.091095	0.038452	-0.003815	0.32791	-0.008392	-0.35507	-0.28473	-0.001678	-0.014038
21.879	0.007477	0.33127	-0.16098	0.015411	-0.017853	0.02655	-0.10773	-0.002136	0.033875	-0.035553	-0.030975	-0.011749	-0.010223	-0.062103	-0.005035	-0.019073	-0.004425	-0.19257	-0.57907	0.49286	-0.10376	-0.00061	-0.40298	-0.025482	0.00885	-0.016785	0.91232	-0.00061	-0.26184	-0.22614	-0.001831	-0.010986
21.88	0.00473	0.31235	-0.14694	0.00885	0.025177	0.063782	-0.12985	-0.00885	0.046234	-0.055542	0.005798	-0.01358	0.037079	-0.06897	-0.014038	0.00061	-0.005341	-0.1503	-0.52551	0.52765	0.022125	-0.052032	-0.42282	-0.097351	-0.050964	-0.014191	0.084839	-0.003357	-0.13794	-0.006256	-0.001526	-0.00946
21.881	-0.00351	0.25589	-0.019989	-0.00412	0.019531	0.103	-0.12756	-0.002899	0.031891	-0.054016	0.07431	-0.015564	0.098114	-0.051575	-0.006409	0.010071	0.001984	-0.12085	-0.2449	0.26703	0.071564	-0.08667	-0.45303	-0.031586	-0.053253	-0.016327	-0.96329	0.004578	-0.12405	0.33737	-0.000458	-0.010071
21.882	-0.007172	0.2005	0.11612	-0.009766	0.000916	0.10132	-0.12894	-0.006714	0.033875	-0.033569	0.086212	-0.014343	0.08606	-0.019073	0.020599	0.000763	0.023804	-0.11139	-0.082855	0.032196	0.046997	-0.07843	-0.32989	-0.00061	-0.053253	0	-0.41534	-0.002899	0.046539	0.25497	-0.00061	-0.006409
21.883	-0.005035	0.16373	0.15564	-0.001221	-0.025787	0.074005	-0.16159	-0.000916	0.034637	-0.013275	0.035553	-0.011139	-0.000153	-0.057068	0.038452	0.009918	0.022583	-0.16174	-0.099182	0.023499	-0.07431	-0.04425	-0.224	0.028992	-0.008392	-0.000305	0.64957	-0.001221	-0.013885	0.076752	-0.000916	0.001068
21.884	-0.009613	0.12329	0.10147	-0.001526	-0.019989	0.01236	-0.14648	0.003204	0.019836	-0.01358	-0.000916	-0.015259	-0.00351	-0.016937	0.022278	0.012665	0.001678	-0.15289	-0.32272	0.025024	-0.081482	0.014496	-0.16953	0.015717	-0.085602	0.011902	0.89294	-0.002441	0.023346	-0.080872	0.002747	0.003052
21.885	-0.007935	0.065155	0.043793	0.007477	0.012817	-0.000763	-0.14664	0.007935	0.028687	-0.016479	0.004883	-0.014648	0.041656	-0.019073	0.003967	0.007629	-0.011139	-0.19836	-0.68283	0.076447	-0.095367	0.001221	-0.093994	-0.041351	-0.079193	0.002289	0.84488	-0.001221	-0.21912	-0.069122	-0.00061	-0.000763
21.886	-0.021667	0.059357	0.00946	0.011292	-0.032349	0.017242	-0.14526	0.005646	0.02533	-0.019073	0.03067	-0.014191	0.041351	-0.024414	0.005188	-0.002594	0.003204	-0.1619	-0.27878	0.12497	-0.035553	-0.032654	0.032043	0.008545	-0.014496	-0.000916	0.25528	-0.002594	-0.41534	0.015564	0.000153	-0.007172
21.887	-0.098114	0.048981	-0.00946	0.004272	-0.081177	0.033569	-0.13825	0.006104	0.023956	-0.027924	0.033722	-0.01236	0.039063	-0.022278	-0.008087	-0.006256	0.021973	-0.10422	-0.095062	0.098114	-0.073242	-0.016479	0.13397	0.11917	0.016327	-0.007019	-0.57892	-0.00351	-0.20996	0.01709	-0.002441	-0.0177
21.888	-0.026093	0.01297	-0.023651	0.011597	-0.073395	0.037384	-0.16388	0.002594	0.036926	-0.034332	0.027924	-0.0177	0.018921	0.005188	-0.002594	-0.015106	0.008698	-0.037689	-0.41596	0.024567	-0.09491	0.003815	0.074768	0.14526	0.05722	-0.018921	-0.56992	-0.004272	0.023651	0.025635	0.000763	-0.018311
21.889	0.076904	-0.051727	0.006256	0.006714	-0.021667	-0.039825	-0.16403	-0.009918	0.041504	-0.032806	0.039673	-0.007019	0.0177	0.00473	-0.001373	-0.019226	-0.015106	-0.12299	-0.28824	-0.062561	-0.025177	0.012512	-0.16129	0.10162	0.051422	0.001678	-0.51819	-0.000763	0.68665	-0.072327	-0.005798	-0.01358
21.89	0.006256	-0.045013	-0.073853	0.009766	0.03891	-0.075378	-0.16525	-0.002441	0.023499	-0.035706	0.052948	-0.016785	0.001068	-0.006104	-0.021057	-0.00946	-0.013885	-0.050049	-0.094452	-0.058441	0.022583	0.00473	-0.32989	0.070953	0.20126	-0.006561	-0.29938	-0.014343	0.35919	-0.21255	-0.001068	-0.01236
21.891	0.034637	-0.072174	-0.10361	0.007172	0.017242	-0.10895	-0.13992	-0.010071	0.022278	-0.039978	0.079803	-0.014954	-0.036163	0.007782	-0.028229	-0.017548	-0.006866	-0.02594	0.0914	-0.09613	0.028381	-0.046539	-0.31723	0.071869	0.10391	-0.01709	0.38437	-0.011597	0.15121	-0.32638	0.001068	-0.015717
21.892	0.027771	-0.066681	-0.10895	0.009155	0.01709	-0.096436	-0.15823	-0.012054	0.014191	-0.043945	0.029602	-0.019073	-0.008545	-0.042267	-0.041504	-0.014343	-0.003357	0.028229	0.1268	-0.16373	-0.020142	-0.021362	-0.19302	0.059509	0.25894	-0.00824	0.48279	-0.006561	0.23224	-0.37094	-0.007782	-0.019379
21.893	0.02533	-0.054932	-0.058594	0.01297	0.021057	-0.095673	-0.13748	-0.006714	0.016479	-0.020447	-0.010376	-0.011597	0.021667	-0.069427	-0.020905	-0.020294	0.001221	-0.014191	0.023499	-0.14084	-0.070648	-0.023346	-0.26016	-0.35645	0.2803	-0.007477	0.36911	-0.001831	0.19012	-0.03891	-0.003052	-0.021057
21.894	0.016785	-0.085602	-0.055695	0.003052	0.008087	-0.071869	-0.13702	-0.000916	0.013275	-0.023651	-0.032959	-0.007172	-0.000305	-0.053711	0.019531	-0.01709	0.005951	-0.018921	-0.054932	-0.008545	-0.12421	-0.007782	-0.3154	-0.28275	0.18875	-0.009918	-0.22018	0.002136	0.044098	-0.17044	-0.002136	-0.019531
21.895	0.011444	-0.11398	-0.025635	0.003967	0.016937	-0.016174	-0.1622	0.00351	0.012817	-0.024872	-0.010223	-0.007324	-0.018158	-0.015717	0.008392	-0.00946	-0.001678	-0.02243	-0.45563	0.1059	-0.12665	-0.029297	-0.45685	-0.16556	-0.005646	-0.008545	-0.84045	0.004272	-0.069275	0.11627	-0.003357	-0.018616
21.896	0.004272	-0.1561	-0.031433	0.006409	-0.002747	0	-0.14572	-0.002594	0.011902	-0.027924	0.000305	-0.007782	0.03006	-0.083923	-0.002441	-0.014191	-0.000916	0.031586	-0.42984	0.15533	-0.022278	-0.034332	-0.46921	-0.16174	-0.59036	-0.025177	-0.48233	-0.001678	-0.19363	0.17456	-0.010986	-0.018311
21.897	0.005035	-0.097198	-0.19104	0.016937	-0.010376	0.007324	-0.14023	0.005493	0.003357	-0.027161	0.015411	-0.012817	0.035858	-0.097809	0.00412	-0.005493	0.019836	0.056763	-0.28305	0.045776	-0.074158	-0.040588	-0.33966	-0.12955	-0.27939	-0.02594	0.074158	-0.003052	-0.12253	0.065918	-0.007019	-0.023499
